# xmcd CD database file
#
# Track frame offsets:
#	150
#	16526
#	37818
#	51378
#	71073
#	85065
#	98088
#	117252
#	129131
#	157154
#	172086
#	189183
#	204693
#	217727
#	234444
#	247868
#	272669
#	291202
#	306070
#	320152
#	339251
#
# Disc length: 4778 seconds
#
# Revision: 0
# Processed by: cddbd v1.5.1PL2 Copyright (c) Steve Scherf et al.
# Submitted via: CDex 1.51
#
DISCID=1c12a815
DTITLE=The Gourds - The Gourds Live At Bluebird Theater 6/18/03, Vols. 1, 2 and 3
DYEAR=2003
DGENRE=Country
TTITLE0=Hellhounds
TTITLE1=Hookie Junk
TTITLE2=2000 Man
TTITLE3=Cold Bed
TTITLE4=Blankets
TTITLE5=LGO
TTITLE6=Old Man from the Mountain
TTITLE7=(Somebody Bring Me a Flower) I'm a Robot
TTITLE8=Web Before You Walk Into It
TTITLE9=On Time
TTITLE10=I'm Troubled
TTITLE11=Plaid Coat
TTITLE12=Right In the Head
TTITLE13=Layin' Around the House
TTITLE14=Coffee and Herb Rag
TTITLE15=God's House - Ringing Dark and True
TTITLE16=Rugged Rose
TTITLE17=Caledonia
TTITLE18=High Highs and Low Lows
TTITLE19=My Name Is Jorge
TTITLE20=Oh Sister
EXTD=YEAR: 2003
EXTT0=
EXTT1=
EXTT2=
EXTT3=
EXTT4=
EXTT5=
EXTT6=
EXTT7=
EXTT8=
EXTT9=
EXTT10=
EXTT11=
EXTT12=
EXTT13=
EXTT14=
EXTT15=
EXTT16=
EXTT17=
EXTT18=
EXTT19=
EXTT20=
PLAYORDER=
